<svg width="57" height="51" viewBox="0 0 57 51" fill="none" xmlns="http://www.w3.org/2000/svg">
<path d="M1 1H9.08443L11.4756 8.39275M18.1937 31.2534H48.7095L55.3137 8.39275H11.4756M18.1937 31.2534L11.4756 8.39275M18.1937 31.2534C14.7777 32.5045 15.3924 38.2176 19.2184 38.4187C21.3819 38.5324 39.6573 38.5324 48.7095 38.5324" stroke="white" stroke-width="2" stroke-linecap="round" stroke-linejoin="round"/>
<path d="M30.1743 44.6274C30.1743 47.5809 27.7409 50 24.7084 50C21.6758 50 19.2424 47.5809 19.2424 44.6274C19.2424 41.6739 21.6758 39.2549 24.7084 39.2549C27.7409 39.2549 30.1743 41.6739 30.1743 44.6274Z" stroke="white" stroke-width="2"/>
<path d="M47.4167 44.6274C47.4167 47.5809 44.9833 50 41.9508 50C38.9183 50 36.4849 47.5809 36.4849 44.6274C36.4849 41.6739 38.9183 39.2549 41.9508 39.2549C44.9833 39.2549 47.4167 41.6739 47.4167 44.6274Z" stroke="white" stroke-width="2"/>
</svg>
