<svg xmlns="http://www.w3.org/2000/svg" width="140" height="136" fill="none" xmlns:v="https://vecta.io/nano"><g filter="url(#A)"><path d="M112.443 47.708c7.521-3.933 15.474-.975 18.723 2.183 6.499 6.316 6.419 18.331-7.217 22.073-12.175 3.341-19.149-4.558-20.801-8.778s-.107-10.562 9.295-15.478z" fill="#fff"/><path d="M112.462 86.589c7.347-2.005 13.74 2.092 15.975 5.469 4.471 6.754 2.077 17.235-10.588 17.909-11.309.602-15.889-7.625-16.52-11.625s1.949-9.247 11.133-11.753z" fill="#fff"/><path d="M79.679 22.13c2.659-7.628 10.584-10.698 15.223-10.583 9.277.228 17.853 8.715 10.598 20.166-6.478 10.224-17.24 9.192-21.476 7.298s-7.668-7.346-4.344-16.88z" fill="#fff"/><path d="M46.104 10.409c2.565-5.738 8.805-7.616 12.322-7.235 7.033.761 12.942 7.871 6.612 16.279-5.652 7.507-13.755 6.031-16.839 4.298s-5.301-6.169-2.095-13.342z" fill="#fff"/><path d="M40.014 112.243c-13.324-5.711-21.121-15.489-23.937-28.161s2.816-28.161 9.856-35.201c8.027-8.027 16.188-12.556 32.385-9.856 16.896 2.816 32.952 23.518 35.201 36.609 4.578 26.653-10.784 35.933-16.897 39.426-9.856 5.632-26.753 1.408-36.609-2.816z" fill="#fff"/></g><defs><filter id="A" x="11.337" y="3.127" width="128.025" height="122.646" filterUnits="userSpaceOnUse" color-interpolation-filters="sRGB"><feFlood flood-opacity="0" result="A"/><feColorMatrix in="SourceAlpha" values="0 0 0 0 0 0 0 0 0 0 0 0 0 0 0 0 0 0 127 0" result="B"/><feOffset dy="4"/><feGaussianBlur stdDeviation="2"/><feComposite in2="B" operator="out"/><feColorMatrix values="0 0 0 0 0 0 0 0 0 0 0 0 0 0 0 0 0 0 0.25 0"/><feBlend in2="A"/><feBlend in="SourceGraphic"/></filter></defs></svg>