<svg width="50" height="50" viewBox="0 0 50 50" fill="none" xmlns="http://www.w3.org/2000/svg">
<path d="M28.1247 50H5.20828C2.33748 50 0 47.6625 0 44.7917V5.20833C0 2.3375 2.33748 0 5.20828 0H28.1247C30.9955 0 33.333 2.3375 33.333 5.20833V17.7083C33.333 18.2833 32.8663 18.75 32.2913 18.75C31.7163 18.75 31.2497 18.2833 31.2497 17.7083V5.20833C31.2497 3.48542 29.8476 2.08333 28.1247 2.08333H5.20828C3.48538 2.08333 2.08331 3.48542 2.08331 5.20833V44.7917C2.08331 46.5146 3.48538 47.9167 5.20828 47.9167H28.1247C29.8476 47.9167 31.2497 46.5146 31.2497 44.7917V32.2917C31.2497 31.7167 31.7163 31.25 32.2913 31.25C32.8663 31.25 33.333 31.7167 33.333 32.2917V44.7917C33.333 47.6625 30.9955 50 28.1247 50Z" fill="white"/>
<path d="M17.7087 23.9599L48.9583 23.9599C49.5333 23.9599 50 24.4266 50 25.0016C50 25.5766 49.5333 26.0432 48.9583 26.0432L17.7087 26.0432C17.1337 26.0432 16.667 25.5766 16.667 25.0016C16.667 24.4266 17.1337 23.9599 17.7087 23.9599Z" fill="white"/>
<path d="M26.0418 15.6266C26.3085 15.6266 26.5751 15.7286 26.7793 15.9307C27.1855 16.337 27.1855 16.9974 26.7793 17.4036L19.1815 25.0016L26.7772 32.5974C27.1835 33.0036 27.1835 33.6641 26.7772 34.0703C26.371 34.4766 25.7106 34.4766 25.3043 34.0703L16.9711 25.737C16.5648 25.3307 16.5648 24.6703 16.9711 24.2641L25.3043 15.9307C25.5085 15.7286 25.7751 15.6266 26.0418 15.6266Z" fill="white"/>
</svg>
